<?xml version="1.0" encoding="utf-8"?>
<svg id="master-artboard" viewBox="0 0 720 503.999" version="1.1" xmlns="http://www.w3.org/2000/svg" x="0px" y="0px" width="720px" height="503.9989929199219px" enable-background="new 0 0 720 503.999">
<symbol id="New_Symbol" viewBox="-0.763 -0.763 1.526 1.525">
	<path fill="#FFFFFF" d="M0.763,0c0-0.421-0.342-0.762-0.763-0.762S-0.763-0.421-0.763,0S-0.421,0.763,0,0.763S0.763,0.42,0.763,0z"/>
</symbol>
<path d="M 0 0 H 720 V 503.998993 H 0 V 0 Z" fill="#FFFFFF" transform="matrix(1, 0, 0, 1, 0, 1.4210854715202004e-14)"/><path fill="#E4EEF9" d="M644.725,277.998c20.234,132.206-145.744,198.309-280.6,198.309c-134.855,0-313.417-20.235-313.074-209.102&#10;&#9;&#9;c0.16-88.288,60.892-249.781,283.126-236.081C463.953,39.125,630.232,183.319,644.725,277.998z" transform="matrix(1, 0, 0, 1, 0, 1.4210854715202004e-14)"/><g transform="matrix(1, 0, 0, 1, 0, 2.842170943040401e-14)">
			<path d="M 347.789001 444.471985 H 371.789001 V 451.203985 H 347.789001 V 444.471985 Z" fill="none" stroke="#ACCBEA" stroke-miterlimit="10"/>
			<path d="M 359.789001 451.20401 H 380.997002 V 457.93701 H 359.789001 V 451.20401 Z" fill="none" stroke="#ACCBEA" stroke-miterlimit="10"/>
		</g><path d="M 352.312012 59.268002 H 376.313011 V 66.000001 H 352.312012 V 59.268002 Z" fill="none" stroke="#ACCBEA" stroke-miterlimit="10" transform="matrix(1, 0, 0, 1, 0, 4.263256414560601e-14)"/><path d="M 364.312012 66 H 385.520012 V 72.733 H 364.312012 V 66 Z" fill="none" stroke="#ACCBEA" stroke-miterlimit="10" transform="matrix(1, 0, 0, 1, 0, 4.263256414560601e-14)"/><path d="M 115.102997 429.058014 H 139.102997 V 435.790014 H 115.102997 V 429.058014 Z" fill="none" stroke="#ACCBEA" stroke-miterlimit="10" transform="matrix(1, 0, 0, 1, 0, 4.263256414560601e-14)"/><path d="M 127.102997 435.790009 H 148.309998 V 442.523008 H 127.102997 V 435.790009 Z" fill="none" stroke="#ACCBEA" stroke-miterlimit="10" transform="matrix(1, 0, 0, 1, 0, 4.263256414560601e-14)"/><path d="M 89.293999 315.884003 H 113.293999 V 322.616003 H 89.293999 V 315.884003 Z" fill="none" stroke="#ACCBEA" stroke-miterlimit="10" transform="matrix(1, 0, 0, 1, 0, 4.263256414560601e-14)"/><path d="M 101.293999 322.615997 H 122.499998 V 329.348997 H 101.293999 V 322.615997 Z" fill="none" stroke="#ACCBEA" stroke-miterlimit="10" transform="matrix(1, 0, 0, 1, 0, 4.263256414560601e-14)"/><path d="M 613.203003 309.675995 H 637.203003 V 316.407995 H 613.203003 V 309.675995 Z" fill="none" stroke="#ACCBEA" stroke-miterlimit="10" transform="matrix(1, 0, 0, 1, 0, 4.263256414560601e-14)"/><path d="M 625.203003 316.40799 H 646.410004 V 323.140989 H 625.203003 V 316.40799 Z" fill="none" stroke="#ACCBEA" stroke-miterlimit="10" transform="matrix(1, 0, 0, 1, 0, 4.263256414560601e-14)"/>
<g transform="matrix(1, 0, 0, 1, 0, 1.4210854715202004e-14)">
		<g opacity="0.6">
			<g>
				<path fill="#ACCBEA" d="M304.034,269.292c-24.625-4.595-18.879-25.601,6.566-24.944c-28.729-9.19-13.133-35.448,12.312-36.105&#10;&#9;&#9;&#9;&#9;&#9;c22.162,0,15.596,17.068,16.417,30.853c0.821,17.067,0.273,33.479,0.273,49.891c0,10.503,1.915,11.009-11.219,10.353&#10;&#9;&#9;&#9;&#9;&#9;c-5.62,0-10.708,0-15.869,0c-10.671,1.97-24.898-4.444-30.644-11.666C269.559,271.918,289.259,269.292,304.034,269.292z"/>
			</g>
		</g>
		<g opacity="0.6">
			<g>
				<path fill="#ACCBEA" d="M185,256c30-7,23-39-8-38c35-14,16-54-15-55c-27,0-19,26-20,47c-1,26-0.333,51-0.333,76&#10;&#9;&#9;&#9;&#9;&#9;c0,16-2.333,16.771,13.667,15.771c6.847,0,13.045,0,19.333,0c13,3,30.333-6.771,37.333-17.771C227,260,203,256,185,256z"/>
			</g>
		</g>
		<g opacity="0.8">
			<g>
				<path fill="#ACCBEA" d="M345.591,305.271H139.235V80.781h206.355V305.271z M146.235,298.271h192.355V87.781H146.235V298.271z"/>
			</g>
			<g>
				<path d="M 122 301.770996 H 360 V 310.680996 H 122 V 301.770996 Z" fill="#ACCBEA"/>
			</g>
			<g>
				<path d="M 239.412994 84.280998 H 245.412994 V 301.771996 H 239.412994 V 84.280998 Z" fill="#ACCBEA"/>
			</g>
			<g>
				<path d="M 145.080002 93.078003 H 339.747009 V 97.016003 H 145.080002 V 93.078003 Z" fill="#ACCBEA"/>
			</g>
			<g>
				<path d="M 145.080002 102.078003 H 339.747009 V 106.016003 H 145.080002 V 102.078003 Z" fill="#ACCBEA"/>
			</g>
			<g>
				<path d="M 145.080002 111.077003 H 339.747009 V 115.015003 H 145.080002 V 111.077003 Z" fill="#ACCBEA"/>
			</g>
			<g>
				<path d="M 145.080002 120.077003 H 339.747009 V 124.015003 H 145.080002 V 120.077003 Z" fill="#ACCBEA"/>
			</g>
			<g>
				<path d="M 145.080002 129.076004 H 339.747009 V 133.014004 H 145.080002 V 129.076004 Z" fill="#ACCBEA"/>
			</g>
			<g>
				<path d="M 145.080002 138.076004 H 339.747009 V 142.014004 H 145.080002 V 138.076004 Z" fill="#ACCBEA"/>
			</g>
			<g>
				<path d="M 145.080002 147.074997 H 339.747009 V 151.012997 H 145.080002 V 147.074997 Z" fill="#ACCBEA"/>
			</g>
			<g>
				<path d="M 145.080002 156.074997 H 339.747009 V 160.012997 H 145.080002 V 156.074997 Z" fill="#ACCBEA"/>
			</g>
			<g>
				<path d="M 145.080002 165.074005 H 339.747009 V 169.012005 H 145.080002 V 165.074005 Z" fill="#ACCBEA"/>
			</g>
			<g>
				<path d="M 145.080002 174.074005 H 339.747009 V 178.012005 H 145.080002 V 174.074005 Z" fill="#ACCBEA"/>
			</g>
			<g>
				<path d="M 145.080002 183.072998 H 339.747009 V 187.010998 H 145.080002 V 183.072998 Z" fill="#ACCBEA"/>
			</g>
			<g>
				<path d="M 145.080002 192.072998 H 339.747009 V 196.010998 H 145.080002 V 192.072998 Z" fill="#ACCBEA"/>
			</g>
			<g>
				<path d="M 145.080002 201.072006 H 339.747009 V 205.010006 H 145.080002 V 201.072006 Z" fill="#ACCBEA"/>
			</g>
			<g>
				<g>
					<path d="M 156.334 87.015999 H 158.334 V 274.349998 H 156.334 V 87.015999 Z" fill="#ACCBEA"/>
				</g>
				<g>
					<path d="M 159.334 274.350006 A 2 2 0 0 1 157.334 276.350006 A 2 2 0 0 1 155.334 274.350006 A 2 2 0 0 1 157.334 272.350006 A 2 2 0 0 1 159.334 274.350006 Z" fill="#ACCBEA"/>
				</g>
			</g>
		</g>
	</g>
<g transform="matrix(1, 0, 0, 1, 0, 1.4210854715202004e-14)">
		<g>
			<path fill="#DBAEA1" d="M221.211,401.252H159.15l6.201,50.715c-0.003,0.016-0.013,0.03-0.013,0.046&#10;&#9;&#9;&#9;&#9;c0,1.268,11.293,2.298,25.222,2.298c13.93,0,25.222-1.03,25.222-2.298l0-0.001h0L221.211,401.252z"/>
			<path fill="#BD968B" d="M219.792,412.928c0,1.969-13.332,4.265-29.687,4.265c-16.354,0-29.536-2.296-29.536-4.265&#10;&#9;&#9;&#9;&#9;c0-1.972,13.258-3.569,29.611-3.569C206.535,409.358,219.792,410.956,219.792,412.928z"/>
			<path fill="#DBAEA1" d="M226.221,400.295h-72.23v11.523h0l0,0.001c0,1.268,16.17,2.298,36.115,2.298&#10;&#9;&#9;&#9;&#9;c19.946,0,36.116-1.03,36.116-2.298l0-0.001h0V400.295z"/>
			<path d="M 226.219997 400.29599 A 36.115002 2.298 0 0 1 190.104996 402.59399 A 36.115002 2.298 0 0 1 153.989994 400.29599 A 36.115002 2.298 0 0 1 190.104996 397.99799 A 36.115002 2.298 0 0 1 226.219997 400.29599 Z" fill="#BD968B"/>
		</g>
		<g>
			<path fill="#76A18A" d="M139.134,320.889c0,0,25.167,1.499,32.333,16.666s0.355,33.368,0,36.167s-23.333-11.167-25.5-24.667&#10;&#9;&#9;&#9;&#9;S145.467,327.389,139.134,320.889z"/>
			<g>
				<g>
					<path fill="#5E806E" d="M175.842,400.888c-0.57-11.219-2.819-22.516-5.855-33.298c-5.068-18.001-13.932-36.479-30.062-46.979&#10;&#9;&#9;&#9;&#9;&#9;&#9;c-0.407-0.265-0.782,0.386-0.379,0.648c16.643,10.832,25.213,30.058,30.286,48.574c2.755,10.056,4.731,20.619,5.261,31.054&#10;&#9;&#9;&#9;&#9;&#9;&#9;C175.116,401.369,175.866,401.371,175.842,400.888L175.842,400.888z"/>
				</g>
			</g>
		</g>
		<g>
			<path fill="#7EAB93" d="M235.91,338.648c0,0-21.022-0.234-27.876,11.96c-6.854,12.193-2.26,27.734-2.129,30.084&#10;&#9;&#9;&#9;&#9;c0.131,2.349,20.066-7.916,22.664-19.018S230.259,343.683,235.91,338.648z"/>
			<g>
				<g>
					<path fill="#5E806E" d="M201.802,402.17c2.658-23.054,12.516-51.327,33.795-63.193c0.422-0.236,0.044-0.884-0.379-0.648&#10;&#9;&#9;&#9;&#9;&#9;&#9;c-21.538,12.012-31.48,40.551-34.166,63.842C200.997,402.65,201.747,402.645,201.802,402.17L201.802,402.17z"/>
				</g>
			</g>
		</g>
		<g>
			<path fill="#87B89E" d="M200.018,349.289c0,0-13.229,7.442-13.113,17.542c0.116,10.098,8.599,18.157,9.528,19.579&#10;&#9;&#9;&#9;&#9;c0.931,1.422,9.689-12.193,7.307-20.072C201.355,358.459,198.302,354.477,200.018,349.289z"/>
			<g>
				<g>
					<path fill="#5E806E" d="M201.75,401.98c-6.796-15.44-10.981-36.519-2.039-51.789c0.245-0.418-0.403-0.796-0.647-0.379&#10;&#9;&#9;&#9;&#9;&#9;&#9;c-9.093,15.528-4.856,36.882,2.039,52.547C201.297,402.801,201.943,402.419,201.75,401.98L201.75,401.98z"/>
				</g>
			</g>
		</g>
		<g>
			<path fill="#90C4A9" d="M147.134,357.124c0,0,15.135-1.16,20.648,7.303c5.512,8.461,2.936,19.875,2.952,21.573&#10;&#9;&#9;&#9;&#9;c0.016,1.699-14.831-4.757-17.225-12.632C151.115,365.492,151.442,360.484,147.134,357.124z"/>
			<g>
				<g>
					<path fill="#5E806E" d="M175.698,401.779c-3.204-16.854-11.764-37.176-28.012-45c-0.434-0.208-0.814,0.438-0.379,0.648&#10;&#9;&#9;&#9;&#9;&#9;&#9;c16.072,7.738,24.496,27.864,27.667,44.551C175.065,402.453,175.788,402.252,175.698,401.779L175.698,401.779z"/>
				</g>
			</g>
		</g>
		<g>
			<path fill="#7EAB93" d="M172.719,363.345c0,0,11.226,4.25,13.042,13.284c1.815,9.031-2.08,17.89-2.502,19.325&#10;&#9;&#9;&#9;&#9;c-0.423,1.438-10.38-9.262-10.094-16.724C173.453,371.77,174.971,367.664,172.719,363.345z"/>
			<g>
				<g>
					<path fill="#5E806E" d="M182.66,402.27c2.401-13.075-0.451-27.772-8.738-38.239c-0.3-0.379-0.827,0.156-0.53,0.531&#10;&#9;&#9;&#9;&#9;&#9;&#9;c8.101,10.23,10.894,24.723,8.545,37.509C181.85,402.543,182.572,402.745,182.66,402.27L182.66,402.27z"/>
				</g>
			</g>
		</g>
		<g>
			<path fill="#90C4A9" d="M195.219,372.998c0,0-8.491,3.215-9.864,10.048c-1.373,6.831,1.573,13.531,1.893,14.616&#10;&#9;&#9;&#9;&#9;c0.32,1.088,7.851-7.005,7.635-12.648C194.664,379.37,193.516,376.266,195.219,372.998z"/>
			<g>
				<g>
					<path fill="#5E806E" d="M188.336,402.265c-1.761-9.686,0.362-20.503,6.439-28.281c0.294-0.377-0.233-0.912-0.53-0.531&#10;&#9;&#9;&#9;&#9;&#9;&#9;c-6.263,8.017-8.447,19.033-6.633,29.012C187.699,402.939,188.422,402.737,188.336,402.265L188.336,402.265z"/>
				</g>
			</g>
		</g>
	</g>
<g transform="matrix(1, 0, 0, 1, 0, 1.4210854715202004e-14)">
		<path fill="#C2DAF2" d="M471.273,455.27c0,2.245-1.819,4.064-4.064,4.064h-2.872c-2.245,0-4.064-1.819-4.064-4.064l0,0&#10;&#9;&#9;&#9;c0-2.245,1.819-4.064,4.064-4.064h2.872C469.454,451.205,471.273,453.024,471.273,455.27L471.273,455.27z"/>
		<path fill="#C2DAF2" d="M588.572,455.27c0,2.245-1.819,4.064-4.064,4.064h-2.872c-2.245,0-4.064-1.819-4.064-4.064l0,0&#10;&#9;&#9;&#9;c0-2.245,1.819-4.064,4.064-4.064h2.872C586.753,451.205,588.572,453.024,588.572,455.27L588.572,455.27z"/>
		<g>
			<g>
				<g>
					<path d="M 450.356995 192.973999 H 596.610992 V 451.204987 H 450.356995 V 192.973999 Z" fill="#C2DAF2"/>
				</g>
				<g>
					<path fill="#D9E8F9" d="M592.769,443.654H454.2v-243.13h138.568V443.654z M456.2,441.654h134.568v-239.13H456.2V441.654z"/>
				</g>
				<g>
					<path d="M 455.200012 256.776001 H 591.768005 V 258.651001 H 455.200012 V 256.776001 Z" fill="#D9E8F9"/>
				</g>
				<g>
					<path d="M 455.200012 322.171997 H 591.768005 V 324.046997 H 455.200012 V 322.171997 Z" fill="#D9E8F9"/>
				</g>
				<g>
					<g>
						<path d="M 477.653015 404.687012 H 529.043015 V 413.000011 H 477.653015 V 404.687012 Z" fill="#D9E8F9"/>
					</g>
					<g>
						<g>
							<path fill="#D9E8F9" d="M480.179,404.687v37.845h46.339v-37.845H480.179z M511.323,421.039h-15.95&#10;&#9;&#9;&#9;&#9;&#9;&#9;&#9;&#9;c-0.989,0-1.791-0.899-1.791-2.01s0.802-2.01,1.791-2.01h15.95c0.989,0,1.79,0.899,1.79,2.01&#10;&#9;&#9;&#9;&#9;&#9;&#9;&#9;&#9;S512.312,421.039,511.323,421.039z"/>
						</g>
					</g>
				</g>
				<g>
					<path d="M 455.200012 387.911011 H 591.768005 V 389.786011 H 455.200012 V 387.911011 Z" fill="#D9E8F9"/>
				</g>
				<g>
					<path d="M 574.320984 210.373993 H 581.820984 V 256.072994 H 574.320984 V 210.373993 Z" fill="#D9E8F9"/>
				</g>
				<g>
					<path d="M 563.320984 210.373993 H 570.820984 V 256.072994 H 563.320984 V 210.373993 Z" fill="#D9E8F9"/>
				</g>
				<g>
					
						<path d="M 549.55603 210.373001 H 555.05503 V 256.072002 H 549.55603 V 210.373001 Z" transform="matrix(0.9534 0.3017 -0.3017 0.9534 96.0994 -155.7635)" fill="#D9E8F9"/>
				</g>
				<g>
					
						<path d="M 539.942017 211.994003 H 546.837017 V 257.694004 H 539.942017 V 211.994003 Z" transform="matrix(0.932 0.3625 -0.3625 0.932 122.0725 -180.9874)" fill="#D9E8F9"/>
				</g>
				<g>
					
						<path d="M 526.875 221.324997 H 533.769 V 258.368996 H 526.875 V 221.324997 Z" transform="matrix(0.866 0.5 -0.5 0.866 190.9781 -233.031)" fill="#D9E8F9"/>
				</g>
				<g>
					<path d="M 562.359009 342.140015 H 569.859009 V 387.839016 H 562.359009 V 342.140015 Z" fill="#D9E8F9"/>
				</g>
				<g>
					<path d="M 574.320984 340.888 H 581.820984 V 386.587002 H 574.320984 V 340.888 Z" fill="#D9E8F9"/>
				</g>
				<g>
					<path d="M 558.676025390625 387.8389892578125 L 539.916015625 387.8389892578125 L 539.916015625 360.84698486328125 L 558.676025390625 342.1400146484375 Z" fill="#D9E8F9"/>
				</g>
				<g>
					<path d="M 499.051014 238.848007 A 11.48 11.48 0 0 1 487.571014 250.328007 A 11.48 11.48 0 0 1 476.091015 238.848007 A 11.48 11.48 0 0 1 487.571014 227.368008 A 11.48 11.48 0 0 1 499.051014 238.848007 Z" fill="#D9E8F9"/>
				</g>
				<g>
					<path d="M 496.8210144042969 255.7760009765625 L 478.8210144042969 255.7760009765625 L 480.8210144042969 245.5780029296875 L 494.8210144042969 245.5780029296875 Z" fill="#D9E8F9"/>
				</g>
				<g>
					<g>
						<path d="M 525.403992 284.244995 H 583.070992 V 292.557995 H 525.403992 V 284.244995 Z" fill="#D9E8F9"/>
					</g>
					<g>
						<g>
							<path fill="#D9E8F9" d="M528.238,284.245v37.845h52v-37.845H528.238z M563.187,300.598h-17.897c-1.11,0-2.01-0.899-2.01-2.01&#10;&#9;&#9;&#9;&#9;&#9;&#9;&#9;&#9;s0.899-2.01,2.01-2.01h17.897c1.11,0,2.01,0.899,2.01,2.01S564.297,300.598,563.187,300.598z"/>
						</g>
					</g>
				</g>
				<g>
					<g>
						<path d="M 537.604004 404.687012 H 579.749004 V 413.000011 H 537.604004 V 404.687012 Z" fill="#D9E8F9"/>
					</g>
					<g>
						<g>
							<path fill="#D9E8F9" d="M539.675,404.687v37.845h38.002v-37.845H539.675z M565.216,421.039h-13.08&#10;&#9;&#9;&#9;&#9;&#9;&#9;&#9;&#9;c-0.812,0-1.469-0.899-1.469-2.01s0.657-2.01,1.469-2.01h13.08c0.812,0,1.469,0.899,1.469,2.01&#10;&#9;&#9;&#9;&#9;&#9;&#9;&#9;&#9;S566.027,421.039,565.216,421.039z"/>
						</g>
					</g>
				</g>
				<g>
					<path fill="#D9E8F9" d="M502.912,305.657c-5.771-6.511,0.481-11.579-7.583-11.579s-1.812,5.068-7.583,11.579&#10;&#9;&#9;&#9;&#9;&#9;&#9;c-7.334,8.272-3.121,16.106,7.583,16.106S510.246,313.93,502.912,305.657z"/>
				</g>
				<g>
					<g>
						<g>
							<path fill="#D9E8F9" d="M495.774,294.56c0,0.437-0.114,0.791-0.255,0.791h-0.188c-0.142,0-0.256-0.354-0.256-0.791v-23.335&#10;&#9;&#9;&#9;&#9;&#9;&#9;&#9;&#9;c0-0.438,0.114-0.791,0.256-0.791h0.188c0.141,0,0.255,0.354,0.255,0.791V294.56z"/>
						</g>
					</g>
					<g>
						<g>
							<g>
								<path fill="#D9E8F9" d="M495.329,293.056c0,0-5.588,1.814-7.346-6.665L495.329,293.056z"/>
							</g>
						</g>
						<g>
							<g>
								<path fill="#D9E8F9" d="M495.27,293.109c0,0,1.306-5.729-7.297-6.719L495.27,293.109z"/>
							</g>
						</g>
					</g>
					<g>
						<g>
							<g>
								<path fill="#D9E8F9" d="M494.995,285.689c0,0-4.734,1.537-6.225-5.646L494.995,285.689z"/>
							</g>
						</g>
						<g>
							<g>
								<path fill="#D9E8F9" d="M494.943,285.734c0,0,1.106-4.854-6.182-5.691L494.943,285.734z"/>
							</g>
						</g>
					</g>
					<g>
						<g>
							<g>
								<path fill="#D9E8F9" d="M495.152,279.803c0,0-3.829,1.243-5.033-4.564L495.152,279.803z"/>
							</g>
						</g>
						<g>
							<g>
								<path fill="#D9E8F9" d="M495.11,279.84c0,0,0.895-3.924-4.998-4.602L495.11,279.84z"/>
							</g>
						</g>
					</g>
					<g>
						<g>
							<g>
								<path fill="#D9E8F9" d="M495.782,276.956c0,0,3.828,1.243,5.032-4.565L495.782,276.956z"/>
							</g>
						</g>
						<g>
							<g>
								<path fill="#D9E8F9" d="M495.823,276.992c0,0-0.895-3.924,4.999-4.602L495.823,276.992z"/>
							</g>
						</g>
					</g>
					<g>
						<g>
							<g>
								<path fill="#D9E8F9" d="M495.084,273.64c0,0-3.016,0.979-3.965-3.597L495.084,273.64z"/>
							</g>
						</g>
						<g>
							<g>
								<path fill="#D9E8F9" d="M495.052,273.669c0,0,0.705-3.092-3.938-3.626L495.052,273.669z"/>
							</g>
						</g>
					</g>
					<g>
						<g>
							<g>
								<path fill="#D9E8F9" d="M495.784,282.797c0,0,4.734,1.537,6.224-5.646L495.784,282.797z"/>
							</g>
						</g>
						<g>
							<g>
								<path fill="#D9E8F9" d="M495.834,282.842c0,0-1.105-4.854,6.183-5.691L495.834,282.842z"/>
							</g>
						</g>
					</g>
					<g>
						<g>
							<g>
								<path fill="#D9E8F9" d="M495.992,290.262c0,0,5.589,1.814,7.347-6.665L495.992,290.262z"/>
							</g>
						</g>
						<g>
							<g>
								<path fill="#D9E8F9" d="M496.052,290.315c0,0-1.305-5.729,7.297-6.719L496.052,290.315z"/>
							</g>
						</g>
					</g>
				</g>
				<g>
					<path d="M 539.916016 381.425995 H 558.676016 V 382.346995 H 539.916016 V 381.425995 Z" fill="#C2DAF2"/>
				</g>
			</g>
			<g>
				<path d="M 525.624023 347.484985 H 532.462023 V 387.798985 H 525.624023 V 347.484985 Z" fill="#D9E8F9"/>
			</g>
			<g>
				<path d="M 512.734009 351.234009 H 519.572009 V 388.34901 H 512.734009 V 351.234009 Z" fill="#D9E8F9"/>
			</g>
		</g>
	</g>
<g transform="matrix(1, 0, 0, 1, 0, 1.4210854715202004e-14)">
		<path fill="#002033" d="M488.203,365.354l-3.787-23.33c-0.157-0.971-1.873-1.585-3.834-1.372s-3.42,1.17-3.264,2.141l4.643,28.6&#10;&#9;&#9;&#9;C484.1,369.494,486.185,367.49,488.203,365.354z"/>
		<path fill="#002033" d="M276.261,342.792c0.156-0.971-1.303-1.928-3.264-2.141s-3.677,0.401-3.834,1.372l-4.958,30.539&#10;&#9;&#9;&#9;c2.565-1.162,5.201-2.233,7.775-3.403L276.261,342.792z"/>
		<path fill="#024268" d="M509.315,345.532c0,1.973-1.737,3.571-3.881,3.571H248.487c-2.144,0-3.881-1.599-3.881-3.571v-2.857&#10;&#9;&#9;&#9;c0-1.973,1.738-3.571,3.881-3.571h256.947c2.144,0,3.881,1.599,3.881,3.571V345.532z"/>
		<path fill="#024268" d="M488.203,365.354c-2.019,2.137-4.104,4.141-6.242,6.038l14.359,88.45c0.158,0.97,1.874,1.584,3.835,1.371&#10;&#9;&#9;&#9;c1.959-0.213,3.42-1.17,3.263-2.14L488.203,365.354z"/>
		<path fill="#024268" d="M264.205,372.562l-14.044,86.511c-0.157,0.97,1.304,1.927,3.263,2.14c1.961,0.213,3.677-0.401,3.835-1.371&#10;&#9;&#9;&#9;l14.722-90.683C269.406,370.329,266.77,371.4,264.205,372.562z"/>
	</g>
<g transform="matrix(1, 0, 0, 1, 0, 1.4210854715202004e-14)">
		<g>
			<path fill="#ACCBEA" d="M406.521,344.634c9.016,11.55,20.462,21.93,20.647,37.585c0.075,6.327-0.878,12.859-1.353,19.17&#10;&#9;&#9;&#9;&#9;c-0.502,6.671-1.041,13.495-3.04,19.912c-0.288,0.926,1.16,1.319,1.447,0.398c2.037-6.541,2.553-13.516,3.093-20.311&#10;&#9;&#9;&#9;&#9;c0.577-7.27,1.643-14.839,1.258-22.126c-0.761-14.397-12.697-25.063-20.992-35.689&#10;&#9;&#9;&#9;&#9;C406.987,342.812,405.934,343.881,406.521,344.634L406.521,344.634z"/>
		</g>
		<g>
			<path fill="#91B2D6" d="M460.272,320.27c0,2.762-2.238,5-5,5h-82h-55c-2.762,0-5-2.238-5-5v-94c0-2.761,2.238-5,5-5h137&#10;&#9;&#9;&#9;&#9;c2.762,0,5,2.239,5,5V320.27z"/>
			<path d="M 318.772003 227.436996 H 454.772003 V 313.951996 H 318.772003 V 227.436996 Z" fill="#F9E0E0"/>
			<path d="M 368.2720031738281 339.10400390625 L 404.7720031738281 339.10400390625 L 401.2720031738281 325.2699890136719 L 371.2720031738281 325.2699890136719 Z" fill="#466F9C"/>
		</g>
		<g>
			<path d="M 449.024994 236.770004 H 468.188993 V 253.770004 H 449.024994 V 236.770004 Z" fill="#FFFFFF"/>
			<path d="M 449.024994 236.770004 H 468.188993 V 240.520004 H 449.024994 V 236.770004 Z" fill="#F5F5F5"/>
		</g>
		<g>
			<path d="M 449.024994 262.769989 H 468.188993 V 279.769989 H 449.024994 V 262.769989 Z" fill="#FFFFFF"/>
			<path d="M 449.024994 262.769989 H 468.188993 V 266.519989 H 449.024994 V 262.769989 Z" fill="#F5F5F5"/>
		</g>
		<g>
			<path d="M 428.946004 421 A 5.454 5.454 0 0 1 423.492004 426.454 A 5.454 5.454 0 0 1 418.038004 421 A 5.454 5.454 0 0 1 423.492004 415.546 A 5.454 5.454 0 0 1 428.946004 421 Z" fill="none" stroke="#ACCBEA" stroke-miterlimit="10"/>
			<path d="M 414.242004 411.75 H 432.742004 V 430.25 H 414.242004 V 411.75 Z" fill="none" stroke="#ACCBEA" stroke-miterlimit="10"/>
		</g>
	</g>
<g transform="matrix(1, 0, 0, 1, 0, 1.4210854715202004e-14)">
		<g>
			<path d="M 363.1520080566406 383.60101318359375 L 352.0539855957031 392.375 L 345.5950012207031 397.4809875488281 L 347.2120056152344 398.75201416015625 L 355.66900634765625 392.06500244140625 L 364.39300537109375 385.16900634765625 Z" fill="#002538"/>
			<path d="M 336.614990234375 390.4259948730469 L 327.927001953125 383.5989990234375 L 326.69000244140625 385.1709899902344 L 334.1919860839844 391.06500244140625 L 343.9809875488281 398.7569885253906 L 345.5950012207031 397.4809875488281 Z" fill="#002538"/>
			<path d="M 347.2120056152344 398.75201416015625 L 345.5950012207031 397.4809875488281 L 343.9809875488281 398.7569885253906 L 307.6780090332031 427.4599914550781 L 308.9179992675781 429.02801513671875 L 345.5989990234375 400.0270080566406 L 382.510009765625 429.0299987792969 L 383.7460021972656 427.4580078125 Z" fill="#466F9C"/>
		</g>
		<path fill="#A89D72" d="M322.597,379.588c0.168-0.681-0.685-2.017-2.058-2.355c-1.373-0.34-2.749,0.446-3.072,1.754l-4.806,19.46&#10;&#9;&#9;&#9;c2.041-1.126,4.079-2.229,6.253-3.946L322.597,379.588z"/>
		<path fill="#D6C791" d="M312.661,398.446l-18.506,74.945c-0.324,1.309,0.528,2.644,1.902,2.983&#10;&#9;&#9;&#9;c1.373,0.339,2.748-0.446,3.072-1.755l19.629-79.492C316.74,396.218,314.702,397.32,312.661,398.446z"/>
		<path fill="#A89D72" d="M378.251,396.369l-4.292-17.383c-0.323-1.308-1.698-2.094-3.072-1.754&#10;&#9;&#9;&#9;c-1.373,0.339-2.225,1.675-1.901,2.983l5.062,20.501C375.49,399.365,376.853,397.898,378.251,396.369z"/>
		<path fill="#D6C791" d="M397.271,473.392l-19.02-77.022c-1.398,1.529-2.761,2.996-4.203,4.348l18.249,73.903&#10;&#9;&#9;&#9;c0.323,1.309,1.698,2.094,3.072,1.755C396.743,476.035,397.595,474.7,397.271,473.392z"/>
		<path fill="#91A3D6" d="M390.315,319.794c-8.417-42.451-11.711-59.025-44.647-59.025c-0.033,0-0.064,0.001-0.097,0.001&#10;&#9;&#9;&#9;s-0.063-0.001-0.097-0.001c-32.937,0-36.23,16.574-44.647,59.025c-5.025,25.348-19.977,39.771-16.102,49.405&#10;&#9;&#9;&#9;c6.933,17.237,44.491,16.834,57.456,16.834c0.95,0,2.092,0.019,3.391,0.046c1.299-0.027,2.44-0.046,3.391-0.046&#10;&#9;&#9;&#9;c12.965,0,50.522,0.403,57.456-16.834C410.292,359.564,395.341,345.142,390.315,319.794z"/>
	</g>
<g transform="matrix(1, 0, 0, 1, 0, 1.4210854715202004e-14)">
		<g>
			<g>
				<g>
					<path fill="#EDEDED" d="M261.214,332.711h28.795c0,0.346-6.447,0.626-14.398,0.626&#10;&#9;&#9;&#9;&#9;&#9;&#9;C267.66,333.337,261.214,333.057,261.214,332.711z"/>
				</g>
			</g>
			<g>
				<g>
					<g>
						<path fill="#EDEDED" d="M262.963,330.124L262.963,330.124c-2.457,0-4.961-1.955-6.166-3.887&#10;&#9;&#9;&#9;&#9;&#9;&#9;&#9;c-1.243-1.994-1.644-4.191-1.048-5.733c0.364-0.944,1.069-1.588,2.037-1.862c0.312-0.088,0.664-0.133,1.046-0.133&#10;&#9;&#9;&#9;&#9;&#9;&#9;&#9;c2.73,0,6.918,2.352,7.625,4.85c0.947,3.345,0.032,5.938-2.331,6.608C263.757,330.071,263.366,330.124,262.963,330.124z&#10;&#9;&#9;&#9;&#9;&#9;&#9;&#9; M258.833,319.509c-0.29,0-0.55,0.032-0.773,0.096c-0.663,0.188-1.126,0.611-1.377,1.26c-0.478,1.236-0.099,3.138,0.964,4.844&#10;&#9;&#9;&#9;&#9;&#9;&#9;&#9;c1.058,1.697,3.224,3.416,5.317,3.416l0,0c0.311,0,0.61-0.04,0.891-0.12c2.159-0.611,2.263-3.177,1.642-5.374&#10;&#9;&#9;&#9;&#9;&#9;&#9;&#9;C264.917,321.586,261.132,319.509,258.833,319.509z"/>
					</g>
				</g>
				<g>
					<g>
						<path fill="#EDEDED" d="M275.612,332.085c7.951,0,14.398,0.28,14.398,0.626h-28.795&#10;&#9;&#9;&#9;&#9;&#9;&#9;&#9;C261.214,332.365,267.66,332.085,275.612,332.085z"/>
					</g>
				</g>
				<g>
					<g>
						<path fill="#EDEDED" d="M284.988,330.923c-2.566,2.861-5.977,4.606-9.723,4.606c-5.062,0-9.514-3.191-12.092-8.018&#10;&#9;&#9;&#9;&#9;&#9;&#9;&#9;C269.906,330.966,277.177,331.513,284.988,330.923z"/>
					</g>
				</g>
				<g>
					<g>
						<path fill="#F5F5F5" d="M263.173,327.512c-1.482-2.775-2.348-6.09-2.348-9.652c0-0.311,0.007-0.617,0.02-0.924h28.84&#10;&#9;&#9;&#9;&#9;&#9;&#9;&#9;c0.014,0.307,0.02,0.613,0.02,0.924c0,5.176-1.818,9.831-4.717,13.063C277.177,331.513,269.906,330.966,263.173,327.512z"/>
					</g>
				</g>
				<g>
					<g>
						<path fill="#F5F5F5" d="M261.169,332.711h0.045c0,0.346,6.445,0.626,14.397,0.626c7.951,0,14.398-0.28,14.398-0.626&#10;&#9;&#9;&#9;&#9;&#9;&#9;&#9;c0.014,0.096,0.02,0.193,0.02,0.291c0,3.08-6.465,5.576-14.44,5.576c-7.975,0-14.439-2.496-14.439-5.576&#10;&#9;&#9;&#9;&#9;&#9;&#9;&#9;C261.15,332.904,261.156,332.807,261.169,332.711z"/>
					</g>
				</g>
			</g>
		</g>
		<path fill="#A3F0E3" d="M507.52,335.007c0,3.513-0.747,4.097-5,4.097h-47.162c-5,0.02-5,0.541-5-4.097v-3.141&#10;&#9;&#9;&#9;c0-4.097,1.165-4.097,5-4.097h47.162c4.128,0,5,0.75,5,4.097V335.007z"/>
		<path fill="#F2DF9E" d="M503.43,323.646c0,3.513-0.747,4.097-5,4.097h-47.162c-5,0.02-5,0.541-5-4.097v-3.141&#10;&#9;&#9;&#9;c0-4.097,1.165-4.097,5-4.097h47.162c4.128,0,5,0.75,5,4.097V323.646z"/>
		<path d="M 489.26001 316.423004 H 491.53601 V 327.757004 H 489.26001 V 316.423004 Z" fill="#F7EFD2"/>
		<path d="M 496.365997 327.78299 H 498.761997 V 339.116989 H 496.365997 V 327.78299 Z" fill="#E1F5F2"/>
		<g>
			<path fill="#F7EFD2" d="M466.148,320.008c0.312-0.065,0.806-0.114,1.308-0.114c0.716,0,1.176,0.123,1.521,0.402&#10;&#9;&#9;&#9;&#9;c0.288,0.214,0.461,0.543,0.461,0.979c0,0.535-0.354,1.004-0.938,1.218v0.017c0.526,0.131,1.143,0.567,1.143,1.39&#10;&#9;&#9;&#9;&#9;c0,0.477-0.188,0.839-0.469,1.11c-0.387,0.354-1.012,0.519-1.916,0.519c-0.493,0-0.872-0.033-1.11-0.066V320.008z&#10;&#9;&#9;&#9;&#9; M466.864,322.278h0.649c0.757,0,1.201-0.395,1.201-0.93c0-0.649-0.494-0.904-1.218-0.904c-0.329,0-0.518,0.024-0.633,0.049&#10;&#9;&#9;&#9;&#9;V322.278z M466.864,324.935c0.14,0.024,0.345,0.033,0.601,0.033c0.74,0,1.423-0.271,1.423-1.077c0-0.757-0.65-1.069-1.432-1.069&#10;&#9;&#9;&#9;&#9;h-0.592V324.935z"/>
			<path fill="#F7EFD2" d="M474.221,323.454c0,1.473-1.021,2.114-1.982,2.114c-1.077,0-1.908-0.79-1.908-2.048&#10;&#9;&#9;&#9;&#9;c0-1.333,0.872-2.114,1.974-2.114C473.447,321.406,474.221,322.237,474.221,323.454z M471.062,323.495&#10;&#9;&#9;&#9;&#9;c0,0.872,0.501,1.53,1.209,1.53c0.69,0,1.209-0.65,1.209-1.547c0-0.674-0.338-1.529-1.193-1.529&#10;&#9;&#9;&#9;&#9;C471.433,321.949,471.062,322.739,471.062,323.495z"/>
			<path fill="#F7EFD2" d="M478.74,323.454c0,1.473-1.021,2.114-1.982,2.114c-1.077,0-1.908-0.79-1.908-2.048&#10;&#9;&#9;&#9;&#9;c0-1.333,0.872-2.114,1.974-2.114C477.967,321.406,478.74,322.237,478.74,323.454z M475.582,323.495&#10;&#9;&#9;&#9;&#9;c0,0.872,0.501,1.53,1.209,1.53c0.69,0,1.209-0.65,1.209-1.547c0-0.674-0.338-1.529-1.193-1.529&#10;&#9;&#9;&#9;&#9;C475.952,321.949,475.582,322.739,475.582,323.495z"/>
			<path fill="#F7EFD2" d="M480.372,323.322h0.016c0.099-0.14,0.239-0.312,0.354-0.452l1.168-1.373h0.872l-1.538,1.637l1.752,2.344&#10;&#9;&#9;&#9;&#9;h-0.88l-1.374-1.908l-0.369,0.411v1.497h-0.716v-5.84h0.716V323.322z"/>
		</g>
		<g>
			<path fill="#E1F5F2" d="M471.898,330.508c0.312-0.065,0.806-0.114,1.308-0.114c0.716,0,1.176,0.123,1.521,0.402&#10;&#9;&#9;&#9;&#9;c0.288,0.214,0.461,0.543,0.461,0.979c0,0.535-0.354,1.004-0.938,1.218v0.017c0.526,0.131,1.143,0.567,1.143,1.39&#10;&#9;&#9;&#9;&#9;c0,0.477-0.188,0.839-0.469,1.11c-0.387,0.354-1.012,0.519-1.916,0.519c-0.493,0-0.872-0.033-1.11-0.066V330.508z&#10;&#9;&#9;&#9;&#9; M472.614,332.778h0.649c0.757,0,1.201-0.395,1.201-0.93c0-0.649-0.494-0.904-1.218-0.904c-0.329,0-0.518,0.024-0.633,0.049&#10;&#9;&#9;&#9;&#9;V332.778z M472.614,335.435c0.14,0.024,0.345,0.033,0.601,0.033c0.74,0,1.423-0.271,1.423-1.077c0-0.757-0.65-1.069-1.432-1.069&#10;&#9;&#9;&#9;&#9;h-0.592V335.435z"/>
			<path fill="#E1F5F2" d="M479.971,333.954c0,1.473-1.021,2.114-1.982,2.114c-1.077,0-1.908-0.79-1.908-2.048&#10;&#9;&#9;&#9;&#9;c0-1.333,0.872-2.114,1.974-2.114C479.197,331.906,479.971,332.737,479.971,333.954z M476.812,333.995&#10;&#9;&#9;&#9;&#9;c0,0.872,0.501,1.53,1.209,1.53c0.69,0,1.209-0.65,1.209-1.547c0-0.674-0.338-1.529-1.193-1.529&#10;&#9;&#9;&#9;&#9;C477.183,332.449,476.812,333.239,476.812,333.995z"/>
			<path fill="#E1F5F2" d="M484.49,333.954c0,1.473-1.021,2.114-1.982,2.114c-1.077,0-1.908-0.79-1.908-2.048&#10;&#9;&#9;&#9;&#9;c0-1.333,0.872-2.114,1.974-2.114C483.717,331.906,484.49,332.737,484.49,333.954z M481.332,333.995&#10;&#9;&#9;&#9;&#9;c0,0.872,0.501,1.53,1.209,1.53c0.69,0,1.209-0.65,1.209-1.547c0-0.674-0.338-1.529-1.193-1.529&#10;&#9;&#9;&#9;&#9;C481.702,332.449,481.332,333.239,481.332,333.995z"/>
			<path fill="#E1F5F2" d="M486.122,333.822h0.016c0.099-0.14,0.239-0.312,0.354-0.452l1.168-1.373h0.872l-1.538,1.637l1.752,2.344&#10;&#9;&#9;&#9;&#9;h-0.88l-1.374-1.908l-0.369,0.411v1.497h-0.716v-5.84h0.716V333.822z"/>
		</g>
		<g>
			<path fill="#D69391" d="M430.75,320.107c0,0.285-0.373,0.518-0.83,0.518l0,0c-0.46,0-0.831-0.232-0.831-0.518v-15.442&#10;&#9;&#9;&#9;&#9;c0-0.286,0.371-0.519,0.831-0.519l0,0c0.457,0,0.83,0.232,0.83,0.519V320.107z"/>
			
				<path d="M 434.97699 303.574005 H 436.77999 V 325.423006 H 434.97699 V 303.574005 Z" transform="matrix(0.9734 0.2291 -0.2291 0.9734 83.6571 -91.5057)" fill="#466F9C"/>
			<g>
				<path fill="#D6C791" d="M422.722,307.135l4.516,19.436c0.117,0.504,0.621,0.817,1.125,0.701&#10;&#9;&#9;&#9;&#9;&#9;c0.505-0.117,0.819-0.622,0.702-1.126l-4.513-19.419L422.722,307.135z"/>
				<path fill="#D69391" d="M424.282,305.569c-0.117-0.505-0.621-0.819-1.124-0.702c-0.506,0.118-0.819,0.622-0.701,1.126&#10;&#9;&#9;&#9;&#9;&#9;l0.265,1.142l1.83-0.408L424.282,305.569z"/>
			</g>
			<path d="M 436.25 339.10400390625 L 424 339.10400390625 L 422 318.25 L 438.25 318.25 Z" fill="#F5F5F5"/>
			<g>
				<path fill="#466F9C" d="M437.84,306.15c-0.319-1.646-2.131-3.045-3.386-1.205c-1.857,2.725,3.165,8.502-1.066,9.803&#10;&#9;&#9;&#9;&#9;&#9;c-0.461,0.142-0.265,0.865,0.199,0.723c1.55-0.476,2.154-1.479,2.222-3.222c0.049-1.276-0.199-2.371-0.65-3.565&#10;&#9;&#9;&#9;&#9;&#9;c-0.382-1.013-0.755-1.95-0.275-3.038c0.586-1.329,2.032-0.338,2.234,0.704C437.209,306.824,437.932,306.623,437.84,306.15&#10;&#9;&#9;&#9;&#9;&#9;L437.84,306.15z"/>
			</g>
		</g>
	</g>
<g opacity="0.7" transform="matrix(1, 0, 0, 1, 0, 1.4210854715202004e-14)">
		<g>
			<path fill="#ACCBEA" d="M476.349,168.543h-75.431v-64.027h75.431V168.543z M403.918,165.543h69.431v-58.027h-69.431V165.543z"/>
		</g>
		<g>
			<path fill="#ACCBEA" d="M109.206,203.557H68.5v-55.028h40.706V203.557z M71.5,200.557h34.706v-49.028H71.5V200.557z"/>
		</g>
		<g>
			<path fill="#ACCBEA" d="M109.206,272.783H68.5v-55.028h40.706V272.783z M71.5,269.783h34.706v-49.028H71.5V269.783z"/>
		</g>
		<g opacity="0.8">
			<g>
				<path fill="#ACCBEA" d="M437.193,158.075c-12.101,0-21.58-4.392-21.58-10s9.479-10,21.58-10s21.579,4.392,21.579,10&#10;&#9;&#9;&#9;&#9;&#9;S449.294,158.075,437.193,158.075z M437.193,140.076c-11.712,0-19.58,4.136-19.58,8s7.868,8,19.58,8s19.579-4.136,19.579-8&#10;&#9;&#9;&#9;&#9;&#9;S448.905,140.076,437.193,140.076z"/>
			</g>
			<g>
				<path fill="#ACCBEA" d="M453.357,153.013c-4.883,0-7.518-9.789-7.518-18.999s2.635-18.999,7.518-18.999&#10;&#9;&#9;&#9;&#9;&#9;s7.518,9.789,7.518,18.999S458.24,153.013,453.357,153.013z M453.357,117.015c-2.604,0-5.518,7.27-5.518,16.999&#10;&#9;&#9;&#9;&#9;&#9;s2.913,16.999,5.518,16.999s5.518-7.27,5.518-16.999S455.962,117.015,453.357,117.015z"/>
			</g>
			<g>
				<path fill="#ACCBEA" d="M430.25,131.076c-3.446,0-6.25-2.467-6.25-5.5c0-3.032,2.804-5.5,6.25-5.5s6.25,2.467,6.25,5.5&#10;&#9;&#9;&#9;&#9;&#9;C436.5,128.609,433.696,131.076,430.25,131.076z M430.25,122.077c-2.344,0-4.25,1.57-4.25,3.5s1.906,3.5,4.25,3.5&#10;&#9;&#9;&#9;&#9;&#9;s4.25-1.57,4.25-3.5S432.594,122.077,430.25,122.077z"/>
			</g>
		</g>
		<g>
			<path fill="#ACCBEA" d="M86.441,192.996c-2.57,0-4.864-4.911-5.998-9.779c-1.194-5.129-1.238-10.94,1.488-11.575&#10;&#9;&#9;&#9;&#9;c0.147-0.034,0.299-0.051,0.451-0.051c2.57,0,4.864,4.911,5.998,9.778c0.624,2.68,0.887,5.289,0.74,7.346&#10;&#9;&#9;&#9;&#9;c-0.223,3.119-1.334,4.022-2.228,4.23C86.745,192.979,86.593,192.996,86.441,192.996z M86.441,190.997v1V190.997L86.441,190.997z&#10;&#9;&#9;&#9;&#9; M82.382,173.591c-0.575,0.242-1.275,3.658,0.009,9.173c1.326,5.697,3.459,8.229,4.048,8.232&#10;&#9;&#9;&#9;&#9;c0.578-0.248,1.275-3.664-0.008-9.173C85.104,176.122,82.969,173.591,82.382,173.591z"/>
		</g>
		<g>
			<path fill="#ACCBEA" d="M89.878,192.996C89.878,192.996,89.878,192.996,89.878,192.996c-0.153,0-0.305-0.017-0.452-0.051&#10;&#9;&#9;&#9;&#9;c-0.893-0.208-2.005-1.111-2.228-4.23c-0.147-2.057,0.116-4.666,0.74-7.346c1.134-4.867,3.428-9.778,5.998-9.778&#10;&#9;&#9;&#9;&#9;c0.152,0,0.304,0.017,0.451,0.051c2.726,0.635,2.682,6.446,1.488,11.576C94.742,188.085,92.448,192.996,89.878,192.996z&#10;&#9;&#9;&#9;&#9; M93.931,173.589c-0.582,0.001-2.716,2.533-4.043,8.234c-1.282,5.503-0.588,8.917-0.007,9.173&#10;&#9;&#9;&#9;&#9;c0.59-0.005,2.721-2.537,4.047-8.232C95.212,177.249,94.512,173.833,93.931,173.589z"/>
		</g>
		<g>
			<path fill="#ACCBEA" d="M88.159,168.043c-2.781,0-5.043-2.262-5.043-5.043s2.262-5.043,5.043-5.043s5.043,2.262,5.043,5.043&#10;&#9;&#9;&#9;&#9;S90.94,168.043,88.159,168.043z M88.159,159.957c-1.678,0-3.043,1.365-3.043,3.043s1.365,3.043,3.043,3.043&#10;&#9;&#9;&#9;&#9;c1.678,0,3.043-1.365,3.043-3.043S89.837,159.957,88.159,159.957z"/>
		</g>
		<g>
			<path fill="#ACCBEA" d="M88.16,239.957c-2.781,0-5.043-2.262-5.043-5.043s2.262-5.043,5.043-5.043s5.043,2.262,5.043,5.043&#10;&#9;&#9;&#9;&#9;S90.94,239.957,88.16,239.957z M88.16,231.871c-1.678,0-3.043,1.365-3.043,3.043s1.365,3.043,3.043,3.043&#10;&#9;&#9;&#9;&#9;c1.678,0,3.043-1.365,3.043-3.043S89.838,231.871,88.16,231.871z"/>
		</g>
		<g>
			<path fill="#ACCBEA" d="M91.907,248.734c-2.014,0-3.652-1.638-3.652-3.652s1.638-3.652,3.652-3.652s3.652,1.638,3.652,3.652&#10;&#9;&#9;&#9;&#9;S93.921,248.734,91.907,248.734z M91.907,243.43c-0.911,0-1.652,0.741-1.652,1.652s0.741,1.652,1.652,1.652&#10;&#9;&#9;&#9;&#9;c0.911,0,1.652-0.741,1.652-1.652S92.818,243.43,91.907,243.43z"/>
		</g>
		<g>
			<path fill="#ACCBEA" d="M90.133,262.191c-2.65,0-6.966-5.984-9.857-11.109c-0.742-1.315-7.149-12.901-3.776-14.805&#10;&#9;&#9;&#9;&#9;c0.259-0.146,0.548-0.22,0.861-0.22c2.65,0,6.966,5.984,9.857,11.109c1.838,3.259,3.294,6.488,4.1,9.094&#10;&#9;&#9;&#9;&#9;c0.993,3.212,0.89,5.026-0.324,5.711C90.736,262.117,90.446,262.191,90.133,262.191z M77.522,238.09&#10;&#9;&#9;&#9;&#9;c-0.255,1.117,0.929,5.686,4.496,12.01c3.568,6.324,6.865,9.701,7.954,10.059c0.256-1.117-0.929-5.687-4.496-12.01&#10;&#9;&#9;&#9;&#9;S78.611,238.45,77.522,238.09z"/>
		</g>
		<g>
			<path fill="#ACCBEA" d="M547,193.073h-31.847v-54.028H547V193.073z M517.153,191.073H545v-50.028h-27.847V191.073z"/>
		</g>
		<g>
			<path fill="#ACCBEA" d="M541.416,187.511h-21.344V144.75h21.344V187.511z M521.072,186.511h19.344V145.75h-19.344V186.511z"/>
		</g>
		<g>
			<path fill="#ACCBEA" d="M532.625,166c-3.584,0-6.5-2.916-6.5-6.5s2.916-6.5,6.5-6.5s6.5,2.916,6.5,6.5S536.209,166,532.625,166z&#10;&#9;&#9;&#9;&#9; M532.625,154c-3.032,0-5.5,2.467-5.5,5.5s2.468,5.5,5.5,5.5s5.5-2.467,5.5-5.5S535.657,154,532.625,154z"/>
		</g>
		<g>
			<path fill="#ACCBEA" d="M536.332,187.509c-0.127-0.011-3.152-0.299-6.342-3.136c-1.858-1.652-2.711-4.112-2.339-6.747&#10;&#9;&#9;&#9;&#9;c0.383-2.706,1.962-5.091,4.024-6.078c3.687-1.763,2.314-5.978,2.254-6.156l0.947-0.322c0.018,0.052,1.724,5.232-2.77,7.381&#10;&#9;&#9;&#9;&#9;c-1.741,0.833-3.134,2.969-3.466,5.315c-0.19,1.35-0.183,3.907,2.013,5.86c2.944,2.618,5.735,2.884,5.764,2.887L536.332,187.509z&#10;&#9;&#9;&#9;&#9;"/>
		</g>
		<g>
			<g>
				<path fill="#ACCBEA" d="M545.501,166.699c3.889,8.644,7.777,17.288,11.666,25.931c0.595,1.321,2.533,0.176,1.943-1.136&#10;&#9;&#9;&#9;&#9;&#9;c-3.889-8.644-7.777-17.288-11.666-25.931C546.85,164.242,544.911,165.387,545.501,166.699L545.501,166.699z"/>
			</g>
		</g>
	</g>
</svg>